<svg width="690" height="641" viewBox="0 0 690 641" fill="none" xmlns="http://www.w3.org/2000/svg">
<path d="M503.47 492.921C503.47 492.921 510.142 529.136 518.987 537.782C527.833 546.441 560.52 540.668 560.52 540.668L503.47 492.921Z" fill="#5C7C0E"/>
<path d="M599.692 628.812C599.692 628.812 590.697 553.176 582.311 539.719C577.9 532.638 503.482 492.934 503.482 492.934C503.482 492.934 515.012 515.345 533.274 541.002C555.973 572.893 577.764 554.908 583.553 560.873C589.343 566.838 596.586 628.812 596.586 628.812H599.692V628.812Z" fill="#76A21E"/>
<path d="M556.408 437.336C557.339 430.088 563.017 408.96 563.017 408.96C563.017 408.96 570.844 454.539 583.031 498.848C583.031 498.861 552.954 464.058 556.408 437.336Z" fill="#5C7C0E"/>
<path d="M600.574 628.812C600.574 628.812 599.642 533.946 595.294 517.924C590.945 501.901 556.408 437.336 556.408 437.336C556.408 437.336 550.245 476.334 551.848 489.073C555.041 514.511 591.654 527.686 593.977 532.253C596.3 536.82 597.94 628.799 597.94 628.799H600.574V628.812Z" fill="#76A21E"/>
<path d="M594.138 628.812C594.138 628.812 608.326 533.472 608.326 528.661C608.326 523.85 599.021 480.593 608.326 458.952C617.631 437.323 646.963 398.864 646.963 398.864C646.963 398.864 651.622 447.894 646.963 470.972C642.305 494.05 612.451 526.249 611.78 530.585C611.109 534.908 598.076 628.812 598.076 628.812H594.138V628.812Z" fill="#76A21E"/>
<path d="M686.086 457.515C686.086 457.515 688.148 486.353 685.353 499.336C682.557 512.318 649.038 521.926 649.038 521.926C649.038 521.926 680.023 481.068 686.086 457.515Z" fill="#5C7C0E"/>
<path d="M598.288 628.81C598.288 628.81 608.984 548.851 619.47 532.033C629.956 515.202 653.697 499.821 663.003 490.213C672.308 480.604 686.086 457.526 686.086 457.526C686.086 457.526 679.762 498.872 672.308 516.177C664.854 533.483 627.831 536.523 622.029 537.806C616.227 539.101 601.543 628.823 601.543 628.823H598.288V628.81Z" fill="#76A21E"/>
<path d="M562.88 570.109L566.843 624.476C567.501 633.469 574.757 640.422 583.491 640.422H619.743C628.477 640.422 635.732 633.469 636.391 624.476L640.354 570.109H562.88V570.109Z" fill="#1B1B2F"/>
<path d="M603.953 640.421H619.743C628.477 640.421 635.732 633.469 636.391 624.476L640.354 570.109H626.39C622.439 587.659 614.811 617.356 603.953 640.421Z" fill="#0E0E1C"/>
<path d="M253.816 619.896V52.0632C253.816 40.7229 262.712 31.5378 273.694 31.5378H529.585C540.567 31.5378 549.463 40.7229 549.463 52.0632V619.883C549.463 631.223 540.567 640.408 529.585 640.408H273.694C262.712 640.421 253.816 631.223 253.816 619.896Z" fill="#1B1B2F"/>
<path d="M537.039 59.9142H266.24V612.058H537.039V59.9142Z" fill="#43D8C9"/>
<path d="M293.771 393.771V433.526C293.771 434.937 294.889 436.092 296.256 436.092H504.464C505.831 436.092 506.949 434.937 506.949 433.526V393.771C506.949 392.36 505.831 391.206 504.464 391.206H296.256C294.889 391.206 293.771 392.347 293.771 393.771Z" stroke="white" stroke-miterlimit="10"/>
<path d="M293.771 377.133V383.278C293.771 384.689 294.889 385.843 296.256 385.843H346.112C347.479 385.843 348.597 384.689 348.597 383.278V377.133C348.597 375.722 347.479 374.567 346.112 374.567H296.256C294.889 374.567 293.771 375.709 293.771 377.133Z" stroke="white" stroke-miterlimit="10"/>
<path d="M468.001 426.419V428.292C468.001 429.703 469.119 430.858 470.486 430.858H472.3C473.666 430.858 474.784 429.703 474.784 428.292V426.419C474.784 425.008 473.666 423.854 472.3 423.854H470.486C469.119 423.854 468.001 425.008 468.001 426.419Z" stroke="white" stroke-miterlimit="10"/>
<path d="M480.188 426.419V428.292C480.188 429.703 481.307 430.858 482.673 430.858H484.487C485.854 430.858 486.972 429.703 486.972 428.292V426.419C486.972 425.008 485.854 423.854 484.487 423.854H482.673C481.294 423.854 480.188 425.008 480.188 426.419Z" stroke="white" stroke-miterlimit="10"/>
<path d="M492.363 426.419V428.292C492.363 429.703 493.481 430.858 494.848 430.858H496.662C498.029 430.858 499.147 429.703 499.147 428.292V426.419C499.147 425.008 498.029 423.854 496.662 423.854H494.848C493.481 423.854 492.363 425.008 492.363 426.419Z" stroke="white" stroke-miterlimit="10"/>
<path d="M293.771 469.009V508.764C293.771 510.175 294.889 511.33 296.256 511.33H504.464C505.831 511.33 506.949 510.175 506.949 508.764V469.009C506.949 467.598 505.831 466.444 504.464 466.444H296.256C294.889 466.444 293.771 467.598 293.771 469.009Z" stroke="white" stroke-miterlimit="10"/>
<path d="M293.771 452.371V458.516C293.771 459.927 294.889 461.081 296.256 461.081H346.112C347.479 461.081 348.597 459.927 348.597 458.516V452.371C348.597 450.96 347.479 449.805 346.112 449.805H296.256C294.889 449.805 293.771 450.96 293.771 452.371Z" stroke="white" stroke-miterlimit="10"/>
<path d="M468.001 501.67V503.543C468.001 504.954 469.119 506.109 470.486 506.109H472.3C473.666 506.109 474.784 504.954 474.784 503.543V501.67C474.784 500.259 473.666 499.104 472.3 499.104H470.486C469.119 499.104 468.001 500.259 468.001 501.67Z" stroke="white" stroke-miterlimit="10"/>
<path d="M480.188 501.67V503.543C480.188 504.954 481.307 506.109 482.673 506.109H484.487C485.854 506.109 486.972 504.954 486.972 503.543V501.67C486.972 500.259 485.854 499.104 484.487 499.104H482.673C481.294 499.104 480.188 500.259 480.188 501.67Z" stroke="white" stroke-miterlimit="10"/>
<path d="M492.363 501.67V503.543C492.363 504.954 493.481 506.109 494.848 506.109H496.662C498.029 506.109 499.147 504.954 499.147 503.543V501.67C499.147 500.259 498.029 499.104 496.662 499.104H494.848C493.481 499.104 492.363 500.259 492.363 501.67Z" stroke="white" stroke-miterlimit="10"/>
<path d="M293.771 544.26V584.015C293.771 585.426 294.889 586.581 296.256 586.581H504.464C505.831 586.581 506.949 585.426 506.949 584.015V544.26C506.949 542.849 505.831 541.695 504.464 541.695H296.256C294.889 541.695 293.771 542.849 293.771 544.26Z" stroke="white" stroke-miterlimit="10"/>
<path d="M293.771 527.622V533.767C293.771 535.178 294.889 536.332 296.256 536.332H346.112C347.479 536.332 348.597 535.178 348.597 533.767V527.622C348.597 526.211 347.479 525.056 346.112 525.056H296.256C294.889 525.056 293.771 526.198 293.771 527.622Z" stroke="white" stroke-miterlimit="10"/>
<path d="M468.001 576.921V578.794C468.001 580.205 469.119 581.36 470.486 581.36H472.3C473.666 581.36 474.784 580.205 474.784 578.794V576.921C474.784 575.51 473.666 574.356 472.3 574.356H470.486C469.119 574.356 468.001 575.497 468.001 576.921Z" stroke="white" stroke-miterlimit="10"/>
<path d="M480.188 576.921V578.794C480.188 580.205 481.307 581.36 482.673 581.36H484.487C485.854 581.36 486.972 580.205 486.972 578.794V576.921C486.972 575.51 485.854 574.356 484.487 574.356H482.673C481.294 574.356 480.188 575.497 480.188 576.921Z" stroke="white" stroke-miterlimit="10"/>
<path d="M492.363 576.921V578.794C492.363 580.205 493.481 581.36 494.848 581.36H496.662C498.029 581.36 499.147 580.205 499.147 578.794V576.921C499.147 575.51 498.029 574.356 496.662 574.356H494.848C493.481 574.356 492.363 575.497 492.363 576.921Z" stroke="white" stroke-miterlimit="10"/>
<path d="M313.749 402.789H486.972" stroke="white" stroke-miterlimit="10"/>
<path d="M313.749 413.655H486.972" stroke="white" stroke-miterlimit="10"/>
<path d="M313.749 424.508H359.517" stroke="white" stroke-miterlimit="10"/>
<path d="M313.749 478.041H486.972" stroke="white" stroke-miterlimit="10"/>
<path d="M313.749 488.893H486.972" stroke="white" stroke-miterlimit="10"/>
<path d="M313.749 499.759H359.517" stroke="white" stroke-miterlimit="10"/>
<path d="M313.749 553.279H486.972" stroke="white" stroke-miterlimit="10"/>
<path d="M313.749 564.144H486.972" stroke="white" stroke-miterlimit="10"/>
<path d="M313.749 574.997H359.517" stroke="white" stroke-miterlimit="10"/>
<path d="M331.154 194.868V276.084C331.154 279.253 333.651 281.831 336.72 281.831H464C467.069 281.831 469.566 279.253 469.566 276.084V194.868C469.566 191.7 467.069 189.121 464 189.121H336.72C333.639 189.121 331.154 191.687 331.154 194.868Z" stroke="white" stroke-miterlimit="10"/>
<path d="M336.695 194.624L396.44 255.443C398.602 257.65 402.093 257.65 404.255 255.443L464 194.624" stroke="white" stroke-miterlimit="10"/>
<path d="M289.472 11.128V144.35C289.472 150.02 293.92 154.613 299.411 154.613H626.377C631.869 154.613 636.316 150.02 636.316 144.35V11.128C636.316 5.4579 631.869 0.865356 626.377 0.865356H299.411C293.92 0.865356 289.472 5.4579 289.472 11.128Z" fill="#2451B6"/>
<path d="M346.447 91.5744L333.228 98.7583L335.75 83.5439L325.054 72.7809L339.838 70.5616L346.447 56.7198L353.069 70.5616L367.853 72.7809L357.144 83.5439L359.678 98.7583L346.447 91.5744Z" fill="#FFB319"/>
<path d="M404.665 91.5744L391.446 98.7583L393.968 83.5439L383.271 72.7809L398.055 70.5616L404.665 56.7198L411.286 70.5616L426.07 72.7809L415.374 83.5439L417.896 98.7583L404.665 91.5744Z" fill="#FFB319"/>
<path d="M462.882 91.5744L449.663 98.7583L452.185 83.5439L441.488 72.7809L456.272 70.5616L462.882 56.7198L469.504 70.5616L484.288 72.7809L473.591 83.5439L476.113 98.7583L462.882 91.5744Z" fill="#FFB319"/>
<path d="M521.099 91.5744L507.88 98.7583L510.402 83.5439L499.706 72.7809L514.49 70.5616L521.099 56.7198L527.721 70.5616L542.505 72.7809L531.808 83.5439L534.33 98.7583L521.099 91.5744Z" fill="#FFB319"/>
<path d="M579.329 91.5744L566.098 98.7583L568.62 83.5439L557.923 72.7809L572.707 70.5616L579.329 56.7198L585.938 70.5616L600.722 72.7809L590.026 83.5439L592.548 98.7583L579.329 91.5744Z" fill="white"/>
<path d="M8.11338 60.8634H140.177C144.289 60.8634 147.631 64.3142 147.631 68.5604V125.685H147.582V147.621L134.375 125.685H8.11338C4.00115 125.685 0.65918 122.234 0.65918 117.988V68.5604C0.65918 64.3014 3.98872 60.8634 8.11338 60.8634Z" fill="#43D8C9"/>
<path d="M18.9966 78.3868H129.294" stroke="white" stroke-miterlimit="10"/>
<path d="M18.9966 93.2677H129.294" stroke="white" stroke-miterlimit="10"/>
<path d="M18.9966 108.148H129.294" stroke="white" stroke-miterlimit="10"/>
<path d="M492.947 272.826V359.327C492.947 364.997 497.395 369.59 502.886 369.59H586.659C592.15 369.59 596.598 364.997 596.598 359.327V272.826C596.598 267.156 592.15 262.563 586.659 262.563H502.886C497.395 262.563 492.947 267.156 492.947 272.826Z" fill="#E43F5A"/>
<path d="M566.955 296.93C560.831 290.606 550.892 290.606 544.767 296.93C538.642 290.606 528.703 290.606 522.578 296.93C516.453 303.255 516.453 313.517 522.578 319.842L533.672 331.297L543.015 340.944C543.984 341.945 545.562 341.945 546.531 340.944L566.968 319.842C573.093 313.517 573.093 303.267 566.955 296.93Z" fill="white"/>
<path d="M605.034 132.292V198.601C605.034 204.271 609.481 208.864 614.973 208.864H679.191C684.682 208.864 689.129 204.271 689.129 198.601V132.292C689.129 126.621 684.682 122.029 679.191 122.029H614.973C609.481 122.029 605.034 126.621 605.034 132.292Z" fill="#FFB319"/>
<path d="M622.215 158.295L641.82 178.538L671.947 147.429" stroke="white" stroke-width="2" stroke-miterlimit="10"/>
<path d="M263.681 344.446C261.283 357.236 206.209 371.27 206.209 371.27L133.742 344.369L219.639 317.083L263.681 344.446Z" fill="#1A1C1C"/>
<path d="M276.315 565.517L292.18 606.298C292.18 606.298 307.611 607.004 313.947 603.104L303.449 553.099L276.315 565.517Z" fill="#D74015"/>
<path d="M103.154 558.269L99.4644 602.052C99.4644 602.052 112.919 609.877 120.274 609.364L132.797 559.86L103.154 558.269Z" fill="#D74015"/>
<path d="M292.193 606.311V629.389C292.193 629.389 305.523 631.454 313.959 629.389C322.382 627.324 361.517 611.25 361.517 611.25C361.517 611.25 359.914 602.18 351.938 599.704C343.95 597.228 313.959 603.117 313.959 603.117L292.193 606.311Z" fill="#FF8F6A"/>
<path d="M120.274 609.364C120.274 609.364 124.349 620.91 124.349 630.3C124.349 630.3 124.349 637.625 110.397 640.101C99.8745 641.974 80.0215 634.739 80.0215 634.739C80.0215 634.739 84.0095 614.688 99.4521 602.052L120.274 609.364Z" fill="#E43F5A"/>
<path d="M100.769 614.701C93.1536 614.855 85.4136 630.313 85.4136 630.313L81.6741 629.017C80.4938 632.493 80.0342 634.764 80.0342 634.764C80.0342 634.764 99.8872 641.986 110.41 640.126C124.362 637.65 124.362 630.325 124.362 630.325C124.362 629.466 124.312 628.581 124.25 627.696L121.206 630.325C121.206 630.3 108.373 614.547 100.769 614.701Z" fill="white"/>
<path d="M94.8802 606.362C94.8802 606.362 92.4079 587.748 104.782 593.521C117.156 599.294 118.224 610.108 118.224 610.108L94.8802 606.362Z" fill="#E43F5A"/>
<path d="M351.926 599.704C347.441 598.319 336.011 599.563 326.843 600.923C326.843 600.923 328.756 586.504 321.178 590.635C313.587 594.753 313.947 603.117 313.947 603.117L310.394 614.701L292.181 606.311C288.193 619.973 292.181 634.341 292.181 634.341C292.181 634.341 305.511 631.454 313.947 629.389C322.37 627.324 361.505 611.25 361.505 611.25C361.505 611.25 359.915 602.18 351.926 599.704Z" fill="#E43F5A"/>
<path d="M351.927 599.704C349.839 599.063 346.261 598.986 342.112 599.23C339.726 606.593 339.54 614.701 339.54 614.701C322.805 621.782 301.325 626.888 291.125 629.094C291.622 632.327 292.181 634.341 292.181 634.341C292.181 634.341 305.512 631.454 313.947 629.389C322.371 627.324 361.505 611.25 361.505 611.25C361.505 611.25 359.915 602.18 351.927 599.704Z" fill="white"/>
<path d="M155.184 313.581C155.184 313.581 116.634 386.716 105.515 441.044C94.4079 495.372 88.8545 592.687 88.8545 592.687C88.8545 592.687 108.732 600.936 132.722 592.687C132.722 592.687 159.036 475.347 164.539 458.298C170.043 441.249 222.807 322.061 222.807 322.061L155.184 313.581Z" fill="#2451B6"/>
<path d="M246.822 317.083C246.822 317.083 274.054 389.833 282.838 426.111C291.621 462.403 317.003 588.569 317.003 588.569C317.003 588.569 295.846 603.655 275.595 599.999C275.595 599.999 228.77 462.018 216.359 430.396C203.948 398.774 176.628 317.083 176.628 317.083H246.822Z" fill="#2451B6"/>
<path d="M125.144 586.876C125.144 586.876 144.649 490.15 155.843 455.245C167.037 420.339 198.705 344.459 198.705 344.459" stroke="#213049" stroke-miterlimit="10"/>
<path d="M195.636 351.887C195.636 351.887 225.416 420.531 241.753 476.091C258.09 531.663 279.658 592.405 279.658 592.405" stroke="#213049" stroke-miterlimit="10"/>
<path d="M270.34 584.541C270.34 584.541 266.227 588.608 275.595 599.999C275.595 599.999 290.727 611.391 317.003 588.569C317.003 588.569 320.556 580.565 313.947 573.432C313.947 573.432 289.522 589.852 270.34 584.541Z" fill="#4273CC"/>
<path d="M90.0224 574.843C90.0224 574.843 82.9782 584.182 88.8546 592.7C88.8546 592.7 106.919 606.721 132.723 592.7C132.723 592.7 139.717 585.58 135.94 578.422C135.928 578.409 96.7063 585.016 90.0224 574.843Z" fill="#4273CC"/>
<path d="M342.348 164.388C342.348 164.388 341.043 148.622 344.696 142.221C348.336 135.819 351.665 133.228 355.218 124.479C356.722 120.772 359.79 123.786 359.517 126.544C359.517 126.544 362.201 120.772 363.952 122.837C365.704 124.902 363.952 130.303 363.952 130.303C363.952 130.303 365.704 129.084 366.499 131.419C367.294 133.767 363.952 146.339 363.952 146.339C363.952 146.339 366.102 136.653 367.903 139.745C369.704 142.836 364.909 156.139 364.909 156.139C364.909 156.139 363.915 167.377 357.119 172.534L342.348 164.388Z" fill="#FF8F6A"/>
<path d="M359.517 126.544C359.517 126.544 358.498 134.69 353.728 143.298" stroke="#D74015" stroke-miterlimit="10"/>
<path d="M363.953 130.303C363.953 130.303 362.114 142.387 358.722 147.455" stroke="#D74015" stroke-miterlimit="10"/>
<path d="M365.543 139.681C365.543 139.681 363.952 149.02 361.331 153.548" stroke="#D74015" stroke-miterlimit="10"/>
<path d="M214.906 186.812C214.906 186.812 194.481 185.388 179.026 183.836C163.571 182.284 152.949 181.334 152.949 181.334L133.742 344.369C164.689 387.049 246.822 324.691 263.668 344.459C263.668 344.459 250.524 249.914 241.244 202.693C241.244 202.681 227.901 192.444 214.906 186.812Z" fill="#E43F5A"/>
<path d="M214.906 186.812C214.906 186.812 210.334 166.902 210.768 145.389L185.449 133.805C185.449 133.805 187.052 167.056 179.026 183.836C179.026 183.836 206.172 206.799 214.906 186.812Z" fill="#FF8F6A"/>
<path d="M210.768 145.389L187.399 134.69L187.064 139.193C187.064 139.193 189.424 161.45 212.831 175.202C211.688 167.441 210.545 156.64 210.768 145.389Z" fill="#D74015"/>
<path d="M180.343 112.074C186.343 90.9587 224.819 86.6869 226.758 116.769C227.789 132.676 230.982 159.244 217.191 162.387C203.401 165.555 171.609 142.849 180.343 112.074Z" fill="#FF8F6A"/>
<path d="M208.545 123.799C207.936 123.761 207.402 124.53 207.34 125.531C207.278 126.519 207.725 127.353 208.334 127.391C208.942 127.43 209.477 126.66 209.539 125.659C209.601 124.672 209.154 123.838 208.545 123.799Z" fill="#1A1C1C"/>
<path d="M221.664 124.607C221.055 124.569 220.521 125.339 220.459 126.339C220.397 127.327 220.844 128.161 221.453 128.199C222.062 128.238 222.596 127.468 222.658 126.467C222.72 125.48 222.273 124.646 221.664 124.607Z" fill="#1A1C1C"/>
<path d="M200.507 121.157C200.507 121.157 206.073 118.86 210.831 119.951C210.831 119.951 210.148 116.487 208.98 116.333C207.812 116.166 201.799 116.936 200.507 121.157Z" fill="#1A1C1C"/>
<path d="M226.92 119.271C226.858 118.424 226.795 117.59 226.746 116.782C225.479 97.0521 208.495 92.1004 195.264 96.9752L198.097 102.479C198.097 102.479 199.525 120.079 223.367 112.857C223.379 112.857 224.1 116.346 226.92 119.271Z" fill="#D74015"/>
<path d="M219.08 121.157C219.08 121.157 221.763 120.438 223.54 121.952C223.54 121.952 222.707 118.655 220.993 118.116C219.278 117.577 219.08 121.157 219.08 121.157Z" fill="#1A1C1C"/>
<path d="M191.611 86.9306C198.991 85.0705 202.333 82.7229 202.333 82.7229C202.333 82.7229 203.339 86.751 201.115 87.9825C201.115 87.9825 213.241 79.5671 221.9 85.8787C231.28 92.7162 237.467 90.8304 237.467 90.8304C237.467 90.8304 236.026 94.2299 232.808 95.2305C232.808 95.2305 237.902 100.952 236.026 106.558C234.162 112.164 230.77 112.087 229.913 117.039C229.913 117.039 222.869 113.921 221.9 106.917C221.9 106.917 220.173 109.675 221.13 112.485C221.13 112.485 205.153 114.165 198.109 102.504C198.109 102.504 196.22 113.998 191.611 115.191C191.611 115.191 193.673 126.583 190.331 128.263L185.461 147.75C185.461 147.75 180.206 137.089 171.211 126.827C162.217 116.564 176.305 106.853 176.305 106.853C176.305 106.853 172.913 105.519 170.367 105.519C170.367 105.519 173.423 99.0405 179.026 104.647C179.026 104.621 174.479 91.2409 191.611 86.9306Z" fill="#1A1C1C"/>
<path d="M191.611 129.829C191.611 129.829 181.598 116.436 179.461 124.646C177.92 130.534 187.81 138.565 187.81 138.565L191.611 129.829Z" fill="#FF8F6A"/>
<path d="M188.53 133.1C188.53 133.1 183.213 121.182 182.194 125.249C181.175 129.315 185.362 132.292 185.362 132.292" stroke="#D74015" stroke-miterlimit="10"/>
<path d="M206.557 130.791C206.557 130.791 203.351 127.943 198.655 127.661" stroke="#D74015" stroke-miterlimit="10"/>
<path d="M221.316 130.727C221.316 130.727 223.242 129.469 225.441 129.033" stroke="#D74015" stroke-miterlimit="10"/>
<path d="M192.22 121.157C192.22 121.157 192.754 132.933 201.575 140.771C201.575 140.771 202.693 138.27 206.544 137.564C210.396 136.859 218.546 139.681 218.546 139.681C218.546 139.681 224.67 134.511 227.801 138.577C230.92 142.644 232.709 162.092 221.291 164.722C209.886 167.351 196.978 162.708 194.27 153.728C194.27 153.728 195.984 134.716 188.518 126.237L192.22 121.157Z" fill="#1A1C1C"/>
<path d="M219.639 144.004C219.639 144.004 211.253 142.785 206.855 140.758C206.855 140.771 210.247 153.997 219.639 144.004Z" fill="white"/>
<path d="M210.769 151.175C210.769 151.175 214.409 149.392 216.372 151.175" stroke="#D74015" stroke-miterlimit="10"/>
<path d="M216.831 127.07C216.831 127.07 216.931 133.946 221.95 138.731C221.95 138.731 218.185 141.13 215.167 138.308" stroke="#D74015" stroke-miterlimit="10"/>
<path d="M264.078 214.008L299.622 233.135C299.622 233.135 336.359 176.472 342.347 164.401L357.119 172.521C357.119 172.521 324.768 264.654 314.792 267.246C304.803 269.837 260.488 253.25 260.488 253.25L264.078 214.008Z" fill="#FF8F6A"/>
<path d="M289.858 227.888L264.066 214.008L260.476 253.237C260.476 253.237 281.645 261.165 298.02 265.206C292.069 253.006 290.267 238.497 289.858 227.888Z" fill="#D74015"/>
<path d="M214.905 186.812C214.905 186.812 227.813 184.477 241.753 193.021C250.611 198.46 290.143 217.895 290.143 217.895C290.143 217.895 281.67 256.508 269.284 273.724C269.284 273.724 239.877 251.633 227.826 241.422C215.75 231.211 214.905 186.812 214.905 186.812Z" fill="#E43F5A"/>
<path d="M250.537 257.06L241.244 225.99" stroke="#A5213A" stroke-miterlimit="10"/>
<path d="M179.287 194.06C179.287 194.06 209.303 215.868 221.304 190.276" stroke="#A5213A" stroke-miterlimit="10"/>
<path d="M283.944 214.829C283.944 214.829 277.384 243.462 263.681 270.491" stroke="#A5213A" stroke-miterlimit="10"/>
<path d="M352.324 141.079C352.324 141.079 360.772 148.378 362.114 155.562" stroke="#D74015" stroke-miterlimit="10"/>
<path d="M342.348 164.388C342.348 164.388 343.354 155.921 347.404 152.74C357.119 145.094 358.722 137.885 360.449 142.554C361.343 144.966 358.983 153.959 354.063 154.792C354.063 154.792 355.417 160.681 352.61 170.045L342.348 164.388Z" fill="#FF8F6A"/>
<path d="M158.179 394.849L30.9357 371.681C25.5314 370.693 21.9161 365.369 22.8727 359.789L45.3099 228.401C46.2665 222.821 51.4223 219.088 56.8266 220.076L184.07 243.244C189.474 244.232 193.089 249.555 192.133 255.136L169.696 386.523C168.739 392.104 163.583 395.837 158.179 394.849Z" fill="#FFB319"/>
<path d="M61.7464 296.379C61.7464 296.379 89.9233 302.459 101.925 299.804C113.926 297.148 118.249 253.276 124.126 254.315C133.58 255.982 129.344 280.664 125.84 290.747C125.84 290.747 160.353 297.777 165.72 304.345C171.087 310.913 160.105 318.225 160.105 318.225C160.105 318.225 163.273 322.895 161.707 327.834C160.142 332.773 154.924 335.903 154.924 335.903C154.924 335.903 159.558 346.807 147.308 350.899C147.308 350.899 148.712 357.48 138.463 360.456C128.213 363.432 118.311 365.1 89.4885 351.541C83.2145 348.59 53.9443 340.726 53.9443 340.726L61.7464 296.379Z" fill="white"/>
<path d="M161.297 317.315C155.694 319.277 128.648 314.351 128.648 314.351" stroke="#518CBC" stroke-miterlimit="10"/>
<path d="M154.911 335.89C149.234 337.468 124.125 331.002 124.125 331.002" stroke="#518CBC" stroke-miterlimit="10"/>
<path d="M147.296 350.886C139.009 352.233 120.125 345.935 120.125 345.935" stroke="#518CBC" stroke-miterlimit="10"/>
<path d="M51.7191 283.465L40.0825 351.362L72.9739 357.326L84.6104 289.429L51.7191 283.465Z" fill="#2451B6"/>
<path d="M96.6942 188.146C96.6942 188.146 95.2779 245.36 121.939 247.721C121.939 247.721 129.157 230.107 121.939 211.006C114.721 191.892 96.6942 188.146 96.6942 188.146Z" fill="#1A1C1C"/>
<path d="M123.306 192.264C123.306 192.264 69.8592 212.52 68.8032 229.004C67.7348 245.501 93.2033 323.061 93.2033 323.061L109.702 318.879L101.105 238.356L137.891 227.914C137.891 227.914 138.947 209.39 123.306 192.264Z" fill="#FF8F6A"/>
<path d="M133.27 229.222L134.612 210.57C132.984 206.234 130.537 201.436 126.909 196.613L117.057 194.804C113.665 196.228 109.155 198.191 104.273 200.538C105.167 209.659 106.223 224.72 105.167 237.214L133.27 229.222Z" fill="#D74015"/>
<path d="M179.026 183.836C179.026 183.836 172.827 172.752 154.266 174.471C131.058 176.626 96.6943 188.146 96.6943 188.146C96.6943 188.146 120.56 221.204 121.939 247.721L148.824 233.93C148.824 233.943 180.629 207.376 179.026 183.836Z" fill="#E43F5A"/>
<path d="M109.689 318.879C109.689 318.879 113.727 319.072 116.92 322.702C120.113 326.333 126.635 330.861 126.262 333.747C125.89 336.634 116.708 330.861 116.708 330.861C116.708 330.861 115.106 334.992 118.907 342.612C122.697 350.232 124.697 354.362 119.305 352.72C119.305 352.72 118.709 356.017 116.112 354.991C113.516 353.965 112.323 351.899 112.323 351.899C112.323 351.899 111.018 353.849 109.689 353.76C108.36 353.657 104.136 348.397 104.136 348.397C104.136 348.397 97.3524 348.808 95.3522 345.614C93.3519 342.419 93.1904 323.074 93.1904 323.074L109.689 318.879Z" fill="#FF8F6A"/>
<path d="M119.318 352.708C119.318 352.708 112.323 345.024 110.733 336.185" stroke="#D74015" stroke-miterlimit="10"/>
<path d="M112.323 351.887C112.323 351.887 107.428 346.294 104.484 337.031" stroke="#D74015" stroke-miterlimit="10"/>
<path d="M104.148 348.385C104.148 348.385 99.3404 342.381 98.2471 337.031" stroke="#D74015" stroke-miterlimit="10"/>
<path d="M108.41 184.503C108.41 184.503 127.592 211.121 126.287 245.488" stroke="#A5213A" stroke-miterlimit="10"/>
<path d="M148.824 233.943C148.824 233.943 171.572 219.845 174.889 192.264" stroke="#A5213A" stroke-miterlimit="10"/>
</svg>
